<?xml version="1.0" encoding="UTF-8" standalone="no"?>
<svg
   xmlns:dc="http://purl.org/dc/elements/1.1/"
   xmlns:cc="http://creativecommons.org/ns#"
   xmlns:rdf="http://www.w3.org/1999/02/22-rdf-syntax-ns#"
   xmlns:svg="http://www.w3.org/2000/svg"
   xmlns="http://www.w3.org/2000/svg"
   xmlns:sodipodi="http://sodipodi.sourceforge.net/DTD/sodipodi-0.dtd"
   xmlns:inkscape="http://www.inkscape.org/namespaces/inkscape"
   version="1.1"
   width="32"
   height="32"
   id="svg18"
   sodipodi:docname="zip.svg"
   inkscape:version="1.0.1 (3bc2e813f5, 2020-09-07)"
   inkscape:export-filename="C:\Users\HP\Desktop\REN\PyQGIS\pdm_importar_md\icons\zip.png"
   inkscape:export-xdpi="96"
   inkscape:export-ydpi="96">
  <metadata
     id="metadata24">
    <rdf:RDF>
      <cc:Work
         rdf:about="">
        <dc:format>image/svg+xml</dc:format>
        <dc:type
           rdf:resource="http://purl.org/dc/dcmitype/StillImage" />
        <dc:title></dc:title>
      </cc:Work>
    </rdf:RDF>
  </metadata>
  <defs
     id="defs22" />
  <sodipodi:namedview
     pagecolor="#ffffff"
     bordercolor="#666666"
     borderopacity="1"
     objecttolerance="10"
     gridtolerance="10"
     guidetolerance="10"
     inkscape:pageopacity="0"
     inkscape:pageshadow="2"
     inkscape:window-width="1920"
     inkscape:window-height="1017"
     id="namedview20"
     showgrid="false"
     inkscape:zoom="8.901276"
     inkscape:cx="20.149533"
     inkscape:cy="15.218973"
     inkscape:window-x="1912"
     inkscape:window-y="-8"
     inkscape:window-maximized="1"
     inkscape:current-layer="svg18"
     inkscape:document-rotation="0" />
  <g
     id="g845"
     transform="matrix(0.05847694,0,0,0.05847694,1.0300792,1.0258312)">
    <path
       d="m 0,0 c 1.6566005,-0.00378799 3.3131979,-0.00929198 4.9697876,-0.01637268 4.4771358,-0.01390603 8.9538854,-0.0028206 13.4309994,0.01371121 4.693703,0.01389553 9.387385,0.00738557 14.081101,0.00386691 7.877357,-0.00269776 15.754561,0.0107389 23.631882,0.03395081 9.101805,0.02663472 18.203355,0.02834642 27.305186,0.01661164 8.767794,-0.01078354 17.535494,-0.004588 26.303284,0.0095553 3.72674,0.005752 7.45342,0.0056834 11.18017,9.346e-4 4.3873,-0.0047769 8.77431,0.0053613 13.16155,0.02695465 1.60843,0.0055573 3.21688,0.0060428 4.8253,0.0010471 2.19821,-0.0059707 4.39557,0.0065852 6.5937,0.02376938 1.22904,0.00243 2.45808,0.00486 3.72437,0.007363 8.94609,1.01487368 14.77492,7.52946488 20.30952,14.01703608 2.41802,2.797141 4.91249,5.519817 7.41796,8.238281 3.39577,3.690147 6.77616,7.392059 10.125,11.125 3.31002,3.688306 6.64723,7.350587 10,11 13.94268,15.184828 13.94268,15.184828 15.68977,17.740213 1.9859,2.732531 3.58209,4.875906 6.88142,5.907177 2.50432,0.24256 4.92641,0.264965 7.44209,0.212168 0.95095,0.0079 1.9019,0.0159 2.88167,0.02408 3.1835,0.0182 6.36455,-0.01342 9.54793,-0.04478 2.28344,0.003 4.56689,0.0091 6.85032,0.01805 4.91603,0.01264 9.83134,0.0032 14.74731,-0.02331 7.77397,-0.04179 15.54742,-0.03471 23.32146,-0.02105 10.89995,0.01399 21.79964,0.0057 32.69956,-0.02203 11.2054,-0.02844 22.41077,-0.05078 33.61621,-0.05957 0.68987,-5.48e-4 1.37974,-0.0011 2.09052,-0.0017 7.53665,-0.0056 15.0733,-0.0075 22.60996,-0.0036 0.99455,5.15e-4 0.99455,5.15e-4 2.0092,0.001 3.30641,0.0018 6.61281,0.004 9.91922,0.0067 7.72687,0.0047 15.45346,-0.0081 23.18028,-0.03511 4.80883,-0.01428 9.61761,-0.01655 14.42645,-0.01596 2.22843,-0.0024 4.45687,-0.01 6.68527,-0.02311 3.04487,-0.01737 6.08922,-0.01629 9.13412,-0.01084 0.8792,-0.0096 1.75839,-0.01924 2.66423,-0.02916 8.39316,0.05236 14.96952,2.395768 21.20848,8.142501 5.71744,6.754823 9.01558,14.962862 9.02876,23.729942 0.002,0.66539 0.005,1.33077 0.007,2.01632 0.007,2.24552 0.006,4.49099 0.006,6.73653 0.003,1.61992 0.007,3.23984 0.0111,4.85976 0.01,4.46421 0.0137,8.9284 0.0164,13.39261 0.004,4.81003 0.0135,9.62004 0.0222,14.43006 0.0198,11.62367 0.0298,23.24734 0.0387,34.87103 0.004,5.47268 0.01,10.94536 0.015,16.41805 0.017,18.19136 0.0315,36.38273 0.0387,54.5741 0.002,4.7223 0.004,9.44461 0.006,14.16691 4.8e-4,1.17372 9.7e-4,2.34744 10e-4,3.55673 0.008,19.01046 0.0336,38.02086 0.0661,57.0313 0.0331,19.51433 0.0511,39.02863 0.0543,58.54299 0.002,10.95785 0.0109,21.9156 0.0365,32.87342 0.0217,9.33318 0.0298,18.66625 0.02,27.99945 -0.005,4.76085 -0.003,9.52146 0.0168,14.28228 0.0176,4.36265 0.0166,8.7249 10e-4,13.08756 -0.002,1.57412 0.002,3.14828 0.0138,4.72236 0.0828,11.69416 -1.23442,21.861 -8.79037,31.22422 -5.18456,5.20818 -10.79879,7.82505 -18.13496,7.8633 -1.11298,-0.002 -1.11298,-0.002 -2.24844,-0.004 -0.79261,0.003 -1.58522,0.005 -2.40185,0.008 -2.6783,0.008 -5.35655,0.008 -8.03485,0.009 -1.93071,0.004 -3.86141,0.008 -5.79212,0.0133 -5.32318,0.012 -10.64636,0.0176 -15.96955,0.0222 -5.73433,0.006 -11.46865,0.0176 -17.20298,0.0283 -13.85727,0.0245 -27.71454,0.0391 -41.57183,0.0521 -3.91241,0.004 -7.82483,0.008 -11.73725,0.0118 -24.2837,0.0252 -48.56741,0.0473 -72.85112,0.0597 -5.62675,0.003 -11.2535,0.006 -16.88025,0.009 -0.69905,3.7e-4 -1.39811,7.4e-4 -2.11835,10e-4 -22.66443,0.0122 -45.32878,0.0431 -67.99317,0.0848 -23.95897,0.044 -47.91788,0.0697 -71.87688,0.0751 -13.061551,0.003 -26.122975,0.0152 -39.184483,0.0481 -11.122512,0.028 -22.244877,0.039 -33.367422,0.0278 -5.67605,-0.005 -11.351792,-0.002 -17.027798,0.0225 -5.196513,0.0224 -10.392494,0.0218 -15.5890161,0.003 -1.8796077,-0.003 -3.7592511,0.003 -5.63880126,0.0178 -18.09734564,0.13535 -18.09734564,0.13535 -25.09372564,-5.63009 -0.986148,-0.80066 -0.986148,-0.80066 -1.992218,-1.6175 -5.935432,-5.09032 -9.530262,-12.75852 -11.007782,-20.3825 -0.09594,-2.55771 -0.139459,-5.08791 -0.134221,-7.64546 -0.0024,-0.77797 -0.0047,-1.55594 -0.0071,-2.35749 -0.0067,-2.62249 -0.0062,-5.24493 -0.0058,-7.86743 -0.0033,-1.89302 -0.007,-3.78604 -0.01114,-5.67906 -0.01003,-5.21445 -0.01374,-10.42889 -0.01639,-15.64335 -0.0039,-5.61915 -0.01348,-11.23829 -0.02221,-16.85743 -0.01977,-13.57655 -0.02983,-27.1531 -0.03873,-40.72967 -0.0044,-6.39167 -0.0097,-12.78335 -0.01499,-19.17502 -0.01701,-21.24444 -0.03153,-42.48889 -0.03875,-63.73334 -4.74e-4,-1.37393 -9.5e-4,-2.74787 -0.0014,-4.1218 -2.37e-4,-0.68134 -4.73e-4,-1.36269 -7.17e-4,-2.06468 -0.0012,-3.45199 -0.0024,-6.90399 -0.0036,-10.35598 -3.6e-4,-1.02759 -3.6e-4,-1.02759 -7.27e-4,-2.07594 -0.0079,-22.20723 -0.03132,-44.41442 -0.06383,-66.62163 -0.03431,-23.48143 -0.05401,-46.96281 -0.0573,-70.44427 -0.0022,-12.79889 -0.01093,-25.59769 -0.03646,-38.39656 -0.02169,-10.89953 -0.02976,-21.798975 -0.02003,-32.698533 0.0045,-5.560823 0.0026,-11.121445 -0.01676,-16.682241 -0.01761,-5.093512 -0.01665,-10.186675 -0.0011,-15.28019 0.0024,-1.839907 -0.002,-3.679838 -0.01383,-5.519708 -0.0721,-11.924724 0.08734,-23.192662 8.692711,-32.4877193 0.694805,-0.782461 1.38961,-1.5649219 2.105469,-2.3710938 C -19.585307,-0.23795426 -10.563321,-0.06898229 0,0 Z"
       fill="#fed665"
       id="path2"
       transform="translate(38.440186,-0.50170898)" />
    <path
       d="m 0,0 c 150.15,0 300.3,0 455,0 0,10.56 0,21.12 0,32 -4.91568,-0.0011 -9.83136,-0.0023 -14.896,-0.0034 -16.24499,6.28e-4 -32.4898,0.03379 -48.73471,0.0837 -9.8489,0.02947 -19.69759,0.04783 -29.54654,0.03984 -8.58696,-0.0069 -17.17358,0.0072 -25.76046,0.04632 -4.54445,0.01999 -9.08838,0.02961 -13.63286,0.01399 -4.28321,-0.01439 -8.56543,-4.8e-4 -12.84852,0.03453 -1.56641,0.0079 -3.13291,0.0058 -4.69929,-0.0076 -10.94097,-0.08525 -18.245,1.612083 -26.44021,9.14417 -0.62004,0.750235 -1.24008,1.500469 -1.87891,2.273438 -0.7309,0.858516 -1.4618,1.717031 -2.21484,2.601562 C 273.57293,47.141797 272.7982,48.057031 272,49 c -1.81473,2.017264 -3.65723,4.008366 -5.5,6 -4.87148,5.299309 -9.69425,10.641075 -14.5,16 -5.73019,6.389775 -11.5017,12.737392 -17.32422,19.042969 -2.53993,2.68122 -2.53993,2.68122 -3.92259,4.74746 -1.95873,2.694014 -3.53613,4.824951 -6.78588,5.851951 -2.44786,0.23979 -4.80961,0.25758 -7.26867,0.1994 -0.92801,0.006 -1.85602,0.012 -2.81215,0.0181 -3.10555,0.0115 -6.20844,-0.0269 -9.31374,-0.0652 -2.22745,-0.002 -4.45491,-8.7e-4 -6.68237,0.003 -6.0453,0.002 -12.08964,-0.0392 -18.13472,-0.088 -6.31805,-0.0437 -12.63612,-0.0479 -18.9543,-0.0562 -10.60406,-0.0193 -21.20774,-0.063 -31.81161,-0.1255 -10.92056,-0.0643 -21.84102,-0.11374 -32.761723,-0.14356 -0.680347,-0.002 -1.360695,-0.004 -2.061659,-0.006 -5.918324,-0.0162 -11.836651,-0.0313 -17.754978,-0.0462 C 50.940592,100.26679 25.470737,100.12733 0,100 0,67 0,34 0,0 Z"
       fill="#fffdfc"
       transform="translate(31,83)"
       id="path4" />
    <path
       d="m 0,0 c 1.6566005,-0.00378799 3.3131979,-0.00929198 4.9697876,-0.01637268 4.4771358,-0.01390603 8.9538854,-0.0028206 13.4309994,0.01371121 4.693703,0.01389553 9.387385,0.00738557 14.081101,0.00386691 7.877357,-0.00269776 15.754561,0.0107389 23.631882,0.03395081 9.101805,0.02663472 18.203355,0.02834642 27.305186,0.01661164 8.767794,-0.01078354 17.535494,-0.004588 26.303284,0.0095553 3.72674,0.005752 7.45342,0.0056834 11.18017,9.346e-4 4.3873,-0.0047769 8.77431,0.0053613 13.16155,0.02695465 1.60843,0.0055573 3.21688,0.0060428 4.8253,0.0010471 2.19821,-0.0059707 4.39557,0.0065852 6.5937,0.02376938 1.22904,0.00243 2.45808,0.00486 3.72437,0.007363 8.94609,1.01487368 14.77492,7.52946488 20.30952,14.01703608 2.41802,2.797141 4.91249,5.519817 7.41796,8.238281 3.39577,3.690147 6.77616,7.392059 10.125,11.125 3.31002,3.688306 6.64723,7.350587 10,11 13.94268,15.184828 13.94268,15.184828 15.68977,17.740213 1.9859,2.732531 3.58209,4.875906 6.88142,5.907177 2.50432,0.24256 4.92641,0.264965 7.44209,0.212168 0.95095,0.0079 1.9019,0.0159 2.88167,0.02408 3.1835,0.0182 6.36455,-0.01342 9.54793,-0.04478 2.28344,0.003 4.56689,0.0091 6.85032,0.01805 4.91603,0.01264 9.83134,0.0032 14.74731,-0.02331 7.77397,-0.04179 15.54742,-0.03471 23.32146,-0.02105 10.89995,0.01399 21.79964,0.0057 32.69956,-0.02203 11.2054,-0.02844 22.41077,-0.05078 33.61621,-0.05957 0.68987,-5.48e-4 1.37974,-0.0011 2.09052,-0.0017 7.53665,-0.0056 15.0733,-0.0075 22.60996,-0.0036 0.99455,5.15e-4 0.99455,5.15e-4 2.0092,0.001 3.30641,0.0018 6.61281,0.004 9.91922,0.0067 7.72687,0.0047 15.45346,-0.0081 23.18028,-0.03511 4.80883,-0.01428 9.61761,-0.01655 14.42645,-0.01596 2.22843,-0.0024 4.45687,-0.01 6.68527,-0.02311 3.04487,-0.01737 6.08922,-0.01629 9.13412,-0.01084 0.8792,-0.0096 1.75839,-0.01924 2.66423,-0.02916 8.39316,0.05236 14.96952,2.395768 21.20848,8.142501 5.07393,5.994556 9.02882,14.073727 9.00806,21.985107 -8e-5,0.96077 -1.5e-4,1.921535 -2.3e-4,2.911425 -0.005,1.03446 -0.0103,2.06891 -0.0156,3.13472 -10e-4,1.06116 -0.003,2.12233 -0.004,3.21565 -0.006,3.39299 -0.0182,6.78591 -0.0309,10.17888 -0.005,2.29883 -0.01,4.59765 -0.0137,6.89648 -0.011,5.6387 -0.0278,11.27735 -0.0488,16.91602 -1.90941,-2.86412 -3.20438,-5.62306 -4.625,-8.75 -5.07378,-10.14756 -10.52935,-12.91174 -21.375,-17.25 0,-10.56 0,-21.120001 0,-32.000001 -150.15,0 -300.3,0 -454.9999955,0 0,33.000001 0,66.000001 0,100.000001 -4.9500005,0.99 -4.9500005,0.99 -10.0000005,2 -8.254187,3.42833 -13.782307,8.75377 -17.25,16.95703 -0.985045,2.66441 -1.902809,5.33196 -2.75,8.04297 -0.33,0 -0.66,0 -1,0 -0.09354,-23.93099 -0.164027,-47.86195 -0.207248,-71.79308 -0.0206,-11.11225 -0.04868,-22.22438 -0.09451,-33.33656 -0.03993,-9.688098 -0.06569,-19.376113 -0.0746,-29.064291 -0.0052,-5.127368 -0.01739,-10.254501 -0.04657,-15.381794 -0.02727,-4.832029 -0.0355,-9.663726 -0.02951,-14.495824 -0.0011,-1.767599 -0.009,-3.535209 -0.02439,-5.302741 -0.09743,-11.755487 0.22327,-22.945646 8.664321,-32.0632113 0.694805,-0.782461 1.38961,-1.5649219 2.105469,-2.3710938 C -19.585307,-0.23795426 -10.563321,-0.06898229 0,0 Z"
       fill="#f8b52c"
       transform="translate(38.440186,-0.50170898)"
       id="path6" />
    <path
       d="m 0,0 c 150.15,0 300.3,0 455,0 0,6.93 0,13.86 0,21 -149.82,0 -299.64,0 -454,0 0,26.07 0,52.14 0,79 -0.33,0 -0.66,0 -1,0 C 0,67 0,34 0,0 Z"
       fill="#e2e1df"
       transform="translate(31,83)"
       id="path8" />
    <g
       id="g853"
       transform="matrix(1.5907332,0,0,1.5907332,-151.29549,-197.49987)">
      <path
         id="path10"
         d="m 334.66992,288.66016 -3.2168,0.0469 c -2.10254,0.006 -4.20605,0.0147 -6.30859,0.0234 L 317.25,288.8125 292,289 v 91 h 28 v -34 l 11.875,0.1875 c 2.22628,0.0501 4.45291,0.0886 6.67969,0.10547 9.54044,-0.15294 17.70435,-2.55201 24.57031,-9.41797 4.4731,-6.85875 6.43777,-13.14763 6.05859,-21.35156 L 369,313 c -0.23785,-6.77865 -3.03723,-11.64136 -7,-17 -7.07471,-6.56937 -18.07501,-7.34303 -27.33008,-7.33984 z m -5.1582,19.16015 c 3.66577,-0.0306 6.46485,0.006 9.48828,2.17969 2.69074,4.03611 2.54918,7.26332 2,12 -1.38671,2.8464 -2.37744,3.68983 -5.1875,5.08984 C 330.66031,328.75715 325.36984,328.10848 320,328 v -20 l 7.25,-0.125 z"
         style="fill:#bb8225;fill-opacity:1" />
      <path
         d="m 0,0 c 26.4,0 52.8,0 80,0 0,6.27 0,12.54 0,19 -3.27298,3.27298 -6.550114,6.540808 -9.835938,9.800781 C 68.317637,30.637949 66.471285,32.47519 64.625,34.3125 63.704609,35.224512 62.784219,36.136523 61.835937,37.076172 57.295445,41.600448 52.912183,46.16997 48.742676,51.036865 45.38232,54.822326 41.73374,58.32848 38.125,61.875 c -1.520508,1.495082 -3.038854,2.992366 -4.554688,4.492187 -0.662416,0.650816 -1.324833,1.301631 -2.007324,1.972168 C 29.914555,69.931425 29.914555,69.931425 29,72 c 17.16,0 34.32,0 52,0 0,6.27 0,12.54 0,19 C 52.62,91 24.24,91 -5,91 -5,72 -5,72 -2.2109375,67.136719 -0.37695313,65.351562 -0.37695313,65.351562 1.625,63.6875 2.2985352,63.051992 2.9720703,62.416484 3.6660156,61.761719 5.0575072,60.45208 6.4675438,59.161862 7.8955078,57.89209 11.230279,54.893891 14.349691,51.689339 17.5,48.5 c 1.165011,-1.155304 2.33036,-2.310269 3.496094,-3.464844 2.844472,-2.844472 5.485476,-5.815623 8.078125,-8.890625 3.360582,-3.742312 6.979386,-7.236286 10.57251,-10.75415 C 42.702412,22.486813 42.702412,22.486813 45,19 30.15,19 15.3,19 0,19 0,12.73 0,6.46 0,0 Z"
         fill="#ba8024"
         transform="translate(148,289)"
         id="path12" />
      <path
         d="m 0,0 c 9.57,0 19.14,0 29,0 0,30.03 0,60.06 0,91 C 19.43,91 9.86,91 0,91 0,60.97 0,30.94 0,0 Z"
         fill="#bb8225"
         transform="translate(243,289)"
         id="path14" />
    </g>
  </g>
</svg>
